<svg width="40" height="40" viewBox="0 0 40 40" fill="none" xmlns="http://www.w3.org/2000/svg">
<path d="M0 20C0 8.95431 8.95431 0 20 0C31.0457 0 40 8.95431 40 20C40 31.0457 31.0457 40 20 40C8.95431 40 0 31.0457 0 20Z" fill="#FAF5FF"/>
<g clip-path="url(#clip0_23_567)">
<path d="M22.8973 20.7417L24.1598 27.8467C24.1739 27.9304 24.1622 28.0163 24.1261 28.0932C24.0901 28.17 24.0315 28.2339 23.9581 28.2765C23.8847 28.3191 23.8 28.3383 23.7155 28.3315C23.6309 28.3246 23.5504 28.2922 23.4848 28.2384L20.5015 25.9992C20.3574 25.8916 20.1825 25.8335 20.0027 25.8335C19.8229 25.8335 19.648 25.8916 19.504 25.9992L16.5156 28.2375C16.4501 28.2912 16.3697 28.3237 16.2852 28.3305C16.2007 28.3373 16.1162 28.3182 16.0428 28.2758C15.9695 28.2333 15.9109 28.1695 15.8747 28.0928C15.8386 28.0162 15.8267 27.9303 15.8406 27.8467L17.1023 20.7417" stroke="#9810FA" stroke-width="1.66667" stroke-linecap="round" stroke-linejoin="round"/>
<path d="M20 21.6667C22.7614 21.6667 25 19.4282 25 16.6667C25 13.9053 22.7614 11.6667 20 11.6667C17.2386 11.6667 15 13.9053 15 16.6667C15 19.4282 17.2386 21.6667 20 21.6667Z" stroke="#9810FA" stroke-width="1.66667" stroke-linecap="round" stroke-linejoin="round"/>
</g>
<defs>
<clipPath id="clip0_23_567">
<rect width="20" height="20" fill="white" transform="translate(10 10)"/>
</clipPath>
</defs>
</svg>
