<svg width="20" height="20" viewBox="0 0 20 20" fill="none" xmlns="http://www.w3.org/2000/svg">
<path d="M9.99624 2.49915C10.5516 4.72056 11.6623 6.52545 13.3284 7.91384C14.9944 9.30222 15.8274 10.8294 15.8274 12.4955C15.8274 14.042 15.2131 15.5252 14.1195 16.6188C13.026 17.7123 11.5428 18.3267 9.99624 18.3267C8.44971 18.3267 6.96652 17.7123 5.87296 16.6188C4.7794 15.5252 4.16504 14.042 4.16504 12.4955C4.16504 11.5943 4.45734 10.7174 4.99807 9.99641C4.99807 10.5487 5.21748 11.0785 5.60804 11.469C5.9986 11.8596 6.52831 12.079 7.08064 12.079C7.63297 12.079 8.16269 11.8596 8.55324 11.469C8.9438 11.0785 9.16322 10.5487 9.16322 9.99641C9.16322 8.33035 7.91367 7.49732 7.91367 5.83126C7.91367 4.72056 8.60786 3.60985 9.99624 2.49915Z" stroke="#FF6900" stroke-width="1.66606" stroke-linecap="round" stroke-linejoin="round"/>
</svg>
