<svg width="48" height="48" viewBox="0 0 48 48" fill="none" xmlns="http://www.w3.org/2000/svg">
<path d="M0 23.9974C0 10.744 10.744 0 23.9974 0C37.2508 0 47.9948 10.744 47.9948 23.9974C47.9948 37.2508 37.2508 47.9948 23.9974 47.9948C10.744 47.9948 0 37.2508 0 23.9974Z" fill="#D6E3FF"/>
<path d="M31.9908 24.9971C31.9908 29.9957 28.4918 32.495 24.333 33.9446C24.1152 34.0184 23.8787 34.0148 23.6632 33.9346C19.4944 32.495 15.9954 29.9957 15.9954 24.9971V17.9992C15.9954 17.734 16.1007 17.4798 16.2882 17.2923C16.4757 17.1048 16.73 16.9995 16.9951 16.9995C18.9946 16.9995 21.4938 15.7998 23.2333 14.2802C23.4451 14.0993 23.7145 13.9999 23.9931 13.9999C24.2717 13.9999 24.5411 14.0993 24.7529 14.2802C26.5024 15.8098 28.9917 16.9995 30.9911 16.9995C31.2562 16.9995 31.5105 17.1048 31.698 17.2923C31.8855 17.4798 31.9908 17.734 31.9908 17.9992V24.9971Z" stroke="#155DFC" stroke-width="1.99942" stroke-linecap="round" stroke-linejoin="round"/>
<path d="M20.994 23.9974L22.9934 25.9968L26.9923 21.998" stroke="#155DFC" stroke-width="1.99942" stroke-linecap="round" stroke-linejoin="round"/>
</svg>
