<svg width="48" height="48" viewBox="0 0 48 48" fill="none" xmlns="http://www.w3.org/2000/svg">
<path d="M0 23.9974C0 10.744 10.744 0 23.9974 0C37.2508 0 47.9948 10.744 47.9948 23.9974C47.9948 37.2508 37.2508 47.9948 23.9974 47.9948C10.744 47.9948 0 37.2508 0 23.9974Z" fill="#D6E3FF"/>
<g clip-path="url(#clip0_0_39)">
<path d="M33.4103 22.9197C33.5893 22.8407 33.7412 22.711 33.8471 22.5466C33.9531 22.3822 34.0085 22.1903 34.0065 21.9947C34.0045 21.7991 33.9451 21.6084 33.8358 21.4462C33.7264 21.284 33.5719 21.1574 33.3913 21.0822L24.8228 17.1793C24.5623 17.0605 24.2794 16.999 23.9931 16.999C23.7068 16.999 23.4238 17.0605 23.1633 17.1793L14.5958 21.0782C14.4178 21.1561 14.2664 21.2843 14.1601 21.4469C14.0538 21.6095 13.9971 21.7996 13.9971 21.9939C13.9971 22.1882 14.0538 22.3783 14.1601 22.541C14.2664 22.7036 14.4178 22.8317 14.5958 22.9097L23.1633 26.8165C23.4238 26.9354 23.7068 26.9968 23.9931 26.9968C24.2794 26.9968 24.5623 26.9354 24.8228 26.8165L33.4103 22.9197Z" stroke="#155DFC" stroke-width="1.99942" stroke-linecap="round" stroke-linejoin="round"/>
<path d="M33.9902 21.998V27.9963" stroke="#155DFC" stroke-width="1.99942" stroke-linecap="round" stroke-linejoin="round"/>
<path d="M17.9948 24.4973V27.9962C17.9948 28.7917 18.6268 29.5545 19.7517 30.1169C20.8766 30.6794 22.4022 30.9954 23.9931 30.9954C25.5839 30.9954 27.1096 30.6794 28.2345 30.1169C29.3594 29.5545 29.9913 28.7917 29.9913 27.9962V24.4973" stroke="#155DFC" stroke-width="1.99942" stroke-linecap="round" stroke-linejoin="round"/>
</g>
<defs>
<clipPath id="clip0_0_39">
<rect width="23.9931" height="23.9931" fill="white" transform="translate(11.9965 12.0009)"/>
</clipPath>
</defs>
</svg>
