<svg width="48" height="48" viewBox="0 0 48 48" fill="none" xmlns="http://www.w3.org/2000/svg">
<path d="M0 23.9974C0 10.744 10.744 0 23.9974 0C37.2508 0 47.9948 10.744 47.9948 23.9974C47.9948 37.2508 37.2508 47.9948 23.9974 47.9948C10.744 47.9948 0 37.2508 0 23.9974Z" fill="#D6E3FF"/>
<g clip-path="url(#clip0_0_47)">
<path d="M23.0104 14.8141C23.0533 14.5848 23.175 14.3776 23.3544 14.2286C23.5339 14.0795 23.7599 13.9979 23.9932 13.9979C24.2265 13.9979 24.4524 14.0795 24.6319 14.2286C24.8113 14.3776 24.933 14.5848 24.9759 14.8141L26.0266 20.3705C26.1012 20.7655 26.2932 21.1289 26.5774 21.4131C26.8617 21.6974 27.2251 21.8894 27.6201 21.964L33.1765 23.0147C33.4058 23.0575 33.613 23.1792 33.762 23.3587C33.9111 23.5382 33.9927 23.7641 33.9927 23.9974C33.9927 24.2307 33.9111 24.4567 33.762 24.6361C33.613 24.8156 33.4058 24.9373 33.1765 24.9801L27.6201 26.0308C27.2251 26.1055 26.8617 26.2974 26.5774 26.5817C26.2932 26.866 26.1012 27.2293 26.0266 27.6244L24.9759 33.1808C24.933 33.4101 24.8113 33.6172 24.6319 33.7663C24.4524 33.9153 24.2265 33.9969 23.9932 33.9969C23.7599 33.9969 23.5339 33.9153 23.3544 33.7663C23.175 33.6172 23.0533 33.4101 23.0104 33.1808L21.9597 27.6244C21.8851 27.2293 21.6931 26.866 21.4089 26.5817C21.1246 26.2974 20.7612 26.1055 20.3662 26.0308L14.8098 24.9801C14.5805 24.9373 14.3734 24.8156 14.2243 24.6361C14.0752 24.4567 13.9937 24.2307 13.9937 23.9974C13.9937 23.7641 14.0752 23.5382 14.2243 23.3587C14.3734 23.1792 14.5805 23.0575 14.8098 23.0147L20.3662 21.964C20.7612 21.8894 21.1246 21.6974 21.4089 21.4131C21.6931 21.1289 21.8851 20.7655 21.9597 20.3705L23.0104 14.8141Z" stroke="#155DFC" stroke-width="1.99942" stroke-linecap="round" stroke-linejoin="round"/>
<path d="M31.9908 14.0003V17.9991" stroke="#155DFC" stroke-width="1.99942" stroke-linecap="round" stroke-linejoin="round"/>
<path d="M33.9902 15.9997H29.9914" stroke="#155DFC" stroke-width="1.99942" stroke-linecap="round" stroke-linejoin="round"/>
<path d="M15.9955 33.9945C17.0997 33.9945 17.9949 33.0993 17.9949 31.9951C17.9949 30.8908 17.0997 29.9957 15.9955 29.9957C14.8912 29.9957 13.996 30.8908 13.996 31.9951C13.996 33.0993 14.8912 33.9945 15.9955 33.9945Z" stroke="#155DFC" stroke-width="1.99942" stroke-linecap="round" stroke-linejoin="round"/>
</g>
<defs>
<clipPath id="clip0_0_47">
<rect width="23.9931" height="23.9931" fill="white" transform="translate(11.9966 12.0009)"/>
</clipPath>
</defs>
</svg>
