<svg width="24" height="24" viewBox="0 0 24 24" fill="none" xmlns="http://www.w3.org/2000/svg">
<path d="M14.9981 20.9973V12.9983C14.9981 12.7332 14.8927 12.4788 14.7052 12.2913C14.5177 12.1038 14.2634 11.9985 13.9982 11.9985H9.99871C9.73353 11.9985 9.47921 12.1038 9.2917 12.2913C9.10418 12.4788 8.99884 12.7332 8.99884 12.9983V20.9973" stroke="#99A1AF" stroke-width="1.99974" stroke-linecap="round" stroke-linejoin="round"/>
<path d="M2.99963 9.99871C2.99956 9.70782 3.06296 9.42041 3.1854 9.15654C3.30784 8.89267 3.48637 8.65868 3.70854 8.47091L10.7076 2.47169C11.0686 2.16663 11.5259 1.99927 11.9985 1.99927C12.4711 1.99927 12.9284 2.16663 13.2893 2.47169L20.2884 8.47091C20.5106 8.65868 20.6891 8.89267 20.8115 9.15654C20.934 9.42041 20.9974 9.70782 20.9973 9.99871V18.9976C20.9973 19.5279 20.7866 20.0366 20.4116 20.4116C20.0366 20.7866 19.5279 20.9973 18.9976 20.9973H4.99938C4.46901 20.9973 3.96037 20.7866 3.58534 20.4116C3.21032 20.0366 2.99963 19.5279 2.99963 18.9976V9.99871Z" stroke="#99A1AF" stroke-width="1.99974" stroke-linecap="round" stroke-linejoin="round"/>
</svg>
